<?xml version="1.0" standalone="no"?>
<!DOCTYPE svg PUBLIC "-//W3C//DTD SVG 20010904//EN"
 "http://www.w3.org/TR/2001/REC-SVG-20010904/DTD/svg10.dtd">
<svg version="1.0" xmlns="http://www.w3.org/2000/svg"
 width="922.000000pt" height="768.000000pt" viewBox="0 0 922.000000 768.000000"
 preserveAspectRatio="xMidYMid meet">
<metadata>
Created by potrace 1.15, written by Peter Selinger 2001-2017
</metadata>
<g transform="translate(0.000000,768.000000) scale(0.100000,-0.100000)"
fill="#000000" stroke="none">
<path d="M4582 7204 c-18 -9 -43 -31 -55 -48 l-22 -31 -3 -677 c-2 -431 -6
-678 -12 -678 -6 0 -10 248 -10 685 0 377 -2 685 -5 685 -2 0 -71 -39 -152
-86 -670 -392 -1252 -818 -1833 -1343 -168 -152 -565 -553 -720 -726 -73 -82
-338 -355 -588 -606 -250 -251 -450 -459 -445 -462 16 -10 693 -190 1155 -307
l427 -108 -65 -32 c-124 -61 -120 -160 5 -115 71 25 72 16 1 -11 -77 -30 -100
-49 -100 -80 0 -34 36 -40 128 -21 42 8 79 14 81 12 2 -2 -22 -17 -53 -32 -39
-19 -59 -35 -63 -51 -9 -36 9 -45 77 -40 58 4 62 3 82 -25 l21 -29 -54 6 c-30
3 -108 11 -174 16 -345 31 -625 90 -687 147 -15 13 -15 18 -1 50 13 32 13 40
-2 79 -44 116 -210 174 -365 128 -142 -42 -250 -174 -250 -307 0 -53 3 -62 33
-92 41 -41 102 -53 188 -36 34 7 67 15 74 17 9 4 20 -17 35 -63 103 -312 288
-682 471 -939 128 -180 309 -375 459 -495 98 -79 271 -189 296 -189 13 0 52
22 88 50 233 178 483 294 690 320 49 6 90 9 92 7 3 -2 -11 -15 -31 -28 -72
-49 -108 -135 -85 -205 40 -119 199 -196 376 -181 150 13 278 76 420 208 47
44 109 91 136 105 84 43 238 75 418 88 l64 5 -47 -41 c-61 -52 -97 -121 -97
-187 0 -42 5 -56 31 -86 18 -20 45 -43 60 -51 73 -37 304 -67 408 -53 113 16
170 49 275 163 144 156 275 220 475 233 l96 6 -32 -36 c-74 -84 -64 -168 30
-253 71 -64 144 -96 231 -102 133 -8 227 39 318 159 31 42 81 95 110 119 104
83 272 150 376 150 l56 0 -26 -27 c-83 -89 -78 -191 16 -299 65 -76 99 -69
248 55 361 300 666 784 862 1371 34 102 65 187 69 188 4 2 39 -2 78 -8 198
-33 277 66 196 243 -55 120 -162 194 -299 204 -125 9 -226 -33 -275 -115 -26
-41 -29 -78 -11 -117 11 -24 9 -29 -12 -46 -39 -30 -172 -68 -328 -95 -79 -13
-147 -24 -152 -24 -4 0 -11 33 -15 73 -3 39 -15 135 -26 211 -11 77 -16 142
-12 146 4 4 94 28 198 55 270 68 1055 282 1062 289 4 3 -178 192 -404 419
-226 226 -464 473 -528 547 -763 879 -1626 1599 -2607 2178 l-138 81 0 -674
c0 -593 -2 -675 -15 -675 -13 0 -15 81 -15 673 0 648 -1 673 -20 704 -38 63
-116 88 -178 57z m93 -49 c21 -8 39 -25 45 -40 6 -17 10 -273 10 -686 l0 -659
-85 0 -85 0 0 673 0 674 23 20 c18 17 35 27 55 32 1 1 18 -6 37 -14z m-235
-734 l0 -649 -92 -6 c-684 -49 -1295 -214 -1883 -508 -88 -44 -202 -104 -252
-134 l-93 -55 0 -433 c0 -238 3 -435 6 -438 3 -4 49 22 102 56 481 309 1070
536 1652 635 121 21 326 45 473 57 l87 6 0 -309 0 -309 -37 -19 c-21 -11 -41
-21 -45 -23 -4 -2 -28 28 -54 67 -36 54 -50 68 -60 61 -19 -16 -36 -100 -44
-219 -6 -87 -13 -120 -39 -181 -38 -89 -59 -174 -70 -284 -5 -45 -20 -114 -35
-155 -14 -40 -29 -97 -32 -127 -4 -30 -10 -54 -13 -54 -4 0 -37 31 -75 68 -66
67 -67 70 -60 107 4 21 24 75 45 119 50 107 69 181 76 296 5 78 2 110 -16 180
-11 46 -25 88 -30 93 -11 11 -116 -7 -201 -35 -124 -40 -240 -108 -330 -194
l-35 -34 -65 27 c-90 37 -231 39 -336 5 l-72 -24 -98 75 c-148 112 -270 183
-356 208 -29 8 -30 6 -58 -54 -58 -129 -74 -202 -75 -337 0 -113 2 -130 25
-180 23 -50 25 -61 16 -117 -5 -35 -12 -63 -15 -63 -33 0 -1443 365 -1530 396
-10 3 133 154 420 442 239 240 489 498 554 572 605 682 1410 1359 2225 1872
124 79 410 248 417 248 2 0 3 -292 3 -649z m620 501 c911 -555 1723 -1242
2445 -2067 76 -88 312 -334 524 -547 211 -214 382 -390 379 -393 -6 -7 -631
-177 -951 -260 -173 -44 -249 -60 -252 -52 -2 7 -11 39 -20 72 -57 206 -171
329 -318 343 -52 4 -70 12 -120 49 -86 62 -176 102 -274 120 -77 14 -94 14
-179 1 -112 -19 -230 -71 -315 -140 -44 -36 -65 -46 -107 -51 -105 -12 -184
-64 -227 -147 -50 -99 -103 -312 -134 -545 l-16 -119 -33 -7 c-17 -3 -32 -5
-32 -4 0 1 10 24 22 51 35 77 30 209 -11 337 -18 55 -36 138 -42 189 -12 114
-32 194 -71 277 -27 57 -31 79 -33 161 -2 91 -32 221 -54 234 -4 3 -29 -28
-55 -70 l-48 -75 -31 21 c-55 37 -172 89 -216 96 l-41 7 0 274 0 274 78 -6
c801 -65 1546 -316 2185 -739 l27 -18 0 441 0 441 -40 25 c-92 58 -346 189
-493 254 -482 215 -1016 356 -1512 401 -66 6 -148 13 -182 16 l-63 6 0 635 c0
601 1 635 18 628 9 -3 96 -54 192 -113z m105 -1231 c435 -52 838 -154 1240
-313 157 -62 450 -202 595 -285 l85 -48 3 -378 c1 -207 0 -377 -3 -377 -3 0
-58 32 -122 70 -371 224 -847 417 -1278 520 -1125 267 -2312 96 -3313 -478
-79 -45 -154 -89 -168 -98 l-24 -16 0 379 0 380 138 76 c593 329 1264 529
1962 587 184 15 693 4 885 -19z m-435 -1010 l0 -268 -52 -6 c-29 -3 -68 -9
-85 -13 l-33 -6 0 281 0 281 85 0 85 0 0 -269z m80 -1 c0 -233 -2 -270 -15
-270 -13 0 -15 37 -15 270 0 233 2 270 15 270 13 0 15 -37 15 -270z m73 -336
c71 -18 143 -53 210 -100 26 -19 51 -34 56 -34 5 0 24 24 42 52 31 52 32 52
41 28 11 -29 14 -172 4 -189 -5 -7 -18 -3 -40 14 -129 98 -312 59 -390 -84
-98 -182 29 -406 230 -404 156 1 275 136 261 297 l-5 61 18 -52 c32 -91 43
-194 37 -341 -3 -77 -13 -166 -22 -202 -37 -141 -130 -289 -222 -353 -37 -25
-49 -28 -124 -28 -46 0 -96 3 -112 7 -15 3 -41 1 -57 -6 -24 -10 -30 -19 -30
-41 0 -22 -5 -29 -20 -29 -14 0 -20 7 -20 24 0 38 -20 46 -111 45 -46 -1 -92
2 -102 6 -9 4 -37 4 -60 1 l-44 -7 -80 85 c-86 89 -142 186 -179 311 -27 90
-26 362 1 465 l20 75 5 -66 c8 -86 50 -161 113 -205 179 -124 413 5 410 226
-1 77 -20 125 -70 181 -57 63 -105 84 -193 84 -81 0 -114 -12 -174 -65 l-34
-30 4 43 c2 23 6 77 10 120 3 42 9 77 12 77 4 0 21 -23 39 -50 l32 -49 59 40
c62 40 168 85 237 99 68 13 184 11 248 -6z m-2350 -140 c75 -38 200 -121 291
-194 l79 -62 76 26 c139 48 247 44 362 -14 l56 -28 54 55 c99 102 252 185 397
214 76 16 76 16 93 -85 21 -127 -6 -276 -76 -416 -18 -36 -37 -95 -44 -131
-14 -82 -14 -79 5 -79 8 0 40 -24 71 -52 l55 -53 -102 -12 c-57 -7 -108 -14
-115 -17 -20 -7 -6 -56 16 -56 10 0 30 -6 45 -12 26 -12 25 -13 -35 -28 l-63
-15 62 -35 c83 -47 93 -60 46 -60 -33 0 -46 -9 -129 -93 -109 -110 -206 -177
-319 -219 -115 -43 -265 -50 -389 -19 -168 42 -357 157 -492 299 -37 40 -75
72 -84 72 -12 0 -10 6 11 25 52 48 19 102 -56 92 l-43 -6 39 19 c53 27 66 39
66 65 0 34 -24 48 -73 42 -23 -2 -51 -8 -62 -11 -11 -3 12 9 52 28 75 36 96
59 87 93 -3 12 0 47 6 78 11 55 11 60 -16 113 -52 102 -43 274 23 440 14 35
31 62 39 62 8 0 38 -12 67 -26z m3987 -81 c72 -20 132 -51 207 -107 50 -38 68
-46 103 -46 140 0 239 -100 303 -305 40 -128 87 -451 87 -596 0 -72 -19 -113
-72 -152 -68 -50 -209 12 -266 117 -17 33 -18 60 -11 336 2 91 -2 176 -10 228
-13 79 -15 83 -38 80 l-24 -3 0 -270 c2 -382 -9 -415 -164 -504 -27 -16 -74
-36 -102 -45 l-53 -15 0 73 0 73 57 29 c63 32 69 41 48 67 -13 18 -16 18 -78
-13 -76 -37 -101 -36 -105 3 -3 22 1 27 17 27 13 0 29 13 41 33 26 42 26 44
-12 68 -37 22 -115 22 -143 -1 -28 -23 -12 -100 20 -100 9 0 15 -10 15 -25 0
-34 -24 -33 -82 4 l-47 30 -16 -26 c-19 -28 -20 -25 39 -61 28 -17 28 -18 22
-86 -4 -39 -9 -72 -12 -75 -10 -10 -136 60 -179 100 -25 23 -57 67 -72 98 -26
53 -28 65 -31 211 -2 90 3 203 11 270 7 63 12 118 10 123 -6 10 -53 9 -53 -2
0 -50 -34 -311 -51 -388 -47 -218 -121 -353 -192 -353 -42 0 -92 32 -113 71
-38 74 -29 259 27 532 65 320 122 404 285 423 48 6 67 14 109 49 164 133 347
178 525 128z m-2006 -4 c51 -14 121 -80 142 -134 24 -65 16 -161 -19 -214 -64
-97 -187 -130 -286 -76 -109 60 -150 187 -97 301 48 102 154 153 260 123z
m632 -24 c102 -60 140 -196 85 -303 -83 -162 -309 -163 -391 -2 -66 129 -1
286 138 331 44 14 120 2 168 -26z m-1015 -723 c12 -37 41 -106 66 -154 24 -49
41 -88 38 -88 -3 0 -22 9 -43 19 -51 27 -99 79 -115 126 -17 51 -16 187 3 245
l14 45 7 -63 c5 -35 18 -94 30 -130z m1296 18 c4 -100 3 -108 -24 -160 -20
-39 -42 -64 -77 -88 -27 -18 -50 -31 -52 -30 -1 2 13 35 32 75 50 105 86 219
92 293 4 54 7 60 15 40 5 -14 12 -72 14 -130z m-4080 55 c34 -10 61 -27 82
-50 34 -39 39 -69 16 -102 -18 -26 -9 -58 26 -89 89 -80 361 -136 873 -178
187 -16 203 -22 187 -72 -36 -108 -58 -563 -32 -654 17 -57 74 -115 128 -129
66 -18 145 5 168 50 26 50 46 201 52 392 5 167 8 187 22 182 120 -48 312 -60
437 -28 l72 19 6 -146 c8 -161 29 -341 45 -382 13 -36 63 -60 121 -60 89 0
151 54 171 149 14 69 6 388 -14 531 l-13 92 351 0 c260 0 354 -3 363 -12 7 -7
12 -43 12 -90 0 -71 2 -81 26 -105 20 -19 31 -24 52 -18 15 3 35 6 45 6 41 0
68 0 85 1 9 1 26 -2 38 -5 14 -5 29 -1 47 14 23 18 27 28 27 75 0 47 2 54 20
54 18 0 20 -7 20 -54 0 -47 4 -57 27 -76 18 -14 34 -19 48 -14 11 3 30 6 43 5
12 0 30 -1 40 -1 9 -1 29 -1 45 -1 15 1 39 1 54 0 48 -2 63 31 63 132 l0 89
210 0 211 0 31 -36 c38 -43 77 -64 119 -64 29 0 31 -2 25 -27 -4 -16 -9 -107
-13 -203 -7 -218 1 -267 62 -349 130 -176 314 -137 332 70 8 79 -11 144 -58
207 l-40 52 26 123 c14 67 27 132 30 144 5 21 6 21 56 -13 28 -18 73 -42 101
-51 42 -15 54 -25 69 -58 31 -67 63 -95 113 -95 33 0 84 45 94 82 7 28 16 33
80 54 39 13 90 35 113 50 22 14 42 24 44 22 2 -2 13 -39 24 -83 11 -44 27
-101 35 -127 l15 -47 -33 -25 c-43 -32 -66 -82 -66 -141 0 -52 16 -89 54 -125
21 -19 40 -25 90 -28 56 -4 71 -1 116 24 64 35 115 91 129 141 19 67 12 222
-15 357 -6 27 -5 28 21 22 18 -5 43 1 80 18 62 28 104 82 112 146 3 22 9 43
13 45 4 3 52 11 107 19 286 43 441 102 459 172 4 16 0 38 -11 58 -16 30 -16
34 -1 64 9 17 37 44 63 59 42 24 58 28 128 28 91 0 146 -20 209 -75 43 -38 83
-110 92 -167 4 -30 1 -44 -14 -63 -18 -22 -27 -25 -84 -23 -34 1 -93 10 -130
21 l-67 19 -12 -51 c-22 -94 -108 -343 -169 -488 -154 -363 -351 -674 -575
-906 -116 -121 -261 -241 -290 -242 -28 0 -95 102 -95 145 0 35 33 91 78 131
15 13 71 46 124 71 54 26 96 48 94 50 -1 2 -101 -6 -222 -16 -154 -14 -236
-25 -277 -40 -139 -49 -270 -139 -344 -236 -21 -27 -57 -69 -80 -92 -75 -74
-198 -93 -307 -45 -55 25 -131 94 -144 131 -21 59 39 125 136 151 37 9 42 14
42 39 l0 29 -136 7 c-197 11 -315 -12 -456 -87 -58 -31 -139 -103 -231 -207
-58 -65 -132 -95 -242 -99 -177 -7 -358 41 -379 100 -24 67 34 156 134 206 36
18 97 37 157 47 54 10 102 21 106 25 13 11 -229 35 -353 34 -181 -1 -379 -41
-484 -97 -33 -18 -102 -71 -153 -118 -117 -109 -219 -163 -336 -179 -94 -13
-188 -2 -250 30 -59 31 -74 46 -93 96 -16 41 -15 45 3 81 26 50 96 96 180 118
37 9 88 23 113 29 l45 12 -95 20 c-136 27 -295 24 -420 -9 -179 -47 -371 -143
-547 -274 l-97 -72 -38 22 c-72 41 -210 144 -303 227 -332 293 -635 776 -810
1295 -26 77 -49 145 -50 152 -3 8 -22 6 -67 -9 -87 -27 -179 -29 -207 -4 -61
55 23 228 138 282 75 36 150 42 228 19z m2672 -137 c31 -80 46 -109 67 -129
13 -12 24 -26 24 -29 0 -12 -234 41 -250 57 -13 13 -10 14 25 11 34 -3 40 0
43 18 2 15 -9 30 -38 52 -48 35 -43 39 58 41 56 1 63 -1 71 -21z m1906 -211
c8 -32 26 -75 40 -97 14 -22 25 -48 25 -57 0 -10 -16 -92 -34 -183 l-34 -165
43 -46 c24 -26 48 -64 54 -85 12 -44 15 -117 4 -128 -4 -3 -32 19 -63 49 -51
51 -58 55 -70 39 -13 -14 -7 -22 48 -71 34 -30 62 -61 62 -67 0 -7 -8 -20 -18
-29 -18 -16 -21 -13 -71 48 -56 69 -60 72 -78 54 -9 -9 -1 -25 34 -66 50 -58
51 -73 5 -49 -47 24 -110 104 -127 159 -18 61 -20 237 -4 375 11 89 14 100 47
136 36 41 95 158 107 214 9 42 12 39 30 -31z m-1830 8 c131 -27 211 -51 221
-66 3 -5 -129 -9 -292 -9 l-298 0 34 35 c29 30 40 35 80 35 25 0 51 -5 57 -11
20 -20 46 -2 39 27 -6 21 -4 25 11 21 10 -3 77 -17 148 -32z m1405 -20 l0 -55
-157 1 c-90 1 -145 4 -128 8 33 8 87 35 125 61 25 18 93 37 138 39 20 1 22 -3
22 -54z m1364 -119 c16 -21 49 -51 74 -67 26 -16 49 -35 53 -42 16 -28 41
-236 37 -303 -6 -85 -25 -124 -85 -167 -31 -22 -56 -31 -95 -34 l-53 -3 43 22
c45 23 46 26 33 46 -7 11 -19 8 -61 -13 -51 -26 -54 -26 -67 -9 -7 10 -13 37
-13 61 0 35 6 50 36 83 19 21 45 42 56 45 12 4 17 12 14 22 -3 8 -24 80 -46
160 l-40 146 35 38 c19 22 35 47 35 56 0 19 3 16 44 -41z m-450 -94 c0 -91 -3
-105 -21 -124 -51 -50 -87 21 -77 148 l7 85 46 -3 46 -3 -1 -103z m-3767 36
c26 -18 69 -44 95 -58 26 -13 49 -33 52 -45 9 -31 6 -219 -4 -335 -12 -131
-26 -202 -46 -226 -14 -17 -15 -13 -10 54 l6 72 -29 0 c-35 0 -41 -13 -41 -91
0 -57 -11 -77 -24 -43 -3 9 -6 47 -6 85 l0 69 -30 0 -30 0 0 -67 c0 -72 -9
-74 -30 -8 -18 55 -16 287 5 455 18 148 22 170 35 170 4 0 30 -15 57 -32z
m1014 -85 c18 -153 19 -477 2 -495 -10 -10 -13 -3 -13 33 0 54 -3 58 -36 51
-25 -4 -25 -6 -23 -81 2 -68 0 -76 -16 -76 -15 0 -22 14 -34 75 -10 46 -21 75
-28 74 -51 -4 -48 8 -28 -114 4 -24 3 -30 -3 -20 -16 25 -31 136 -42 305 -16
250 -20 228 48 266 31 17 77 47 101 65 24 19 47 34 51 34 4 0 14 -53 21 -117z"/>
<path d="M4329 5473 c-12 -3 -15 -15 -12 -56 2 -29 7 -101 11 -162 7 -106 8
-110 30 -109 12 0 61 1 108 2 l85 2 -3 33 -3 32 -66 -3 -66 -4 -6 93 c-4 51
-7 112 -7 136 0 41 -2 43 -27 42 -16 -1 -35 -3 -44 -6z"/>
<path d="M4590 5315 l0 -165 40 0 40 0 0 165 0 165 -40 0 -40 0 0 -165z"/>
<path d="M4718 5450 c-5 -30 -4 -30 45 -30 l50 0 -6 -135 -6 -135 38 0 38 0 6
68 c4 37 7 95 7 130 l0 62 49 0 c46 0 49 2 53 29 4 27 1 29 -31 35 -20 3 -82
6 -137 6 l-102 0 -4 -30z"/>
<path d="M5022 5438 c3 -31 5 -33 47 -36 l44 -3 -7 -82 c-4 -45 -9 -105 -13
-133 l-5 -52 37 -4 c21 -2 39 0 41 6 2 6 10 65 17 131 l13 120 52 -3 52 -4 0
31 c0 34 1 34 -155 51 -132 14 -127 15 -123 -22z"/>
<path d="M3973 5430 c-82 -50 -65 -146 30 -170 67 -17 87 -28 87 -49 0 -30
-36 -44 -92 -38 l-48 6 0 -34 0 -35 60 0 c105 0 160 38 160 111 0 47 -38 82
-110 99 -89 21 -77 70 16 70 40 0 54 4 54 14 0 8 3 21 6 30 10 25 -120 22
-163 -4z"/>
<path d="M5322 5273 c-12 -86 -19 -159 -16 -162 3 -3 50 -13 104 -21 98 -16
99 -16 104 4 11 40 6 45 -47 51 -84 11 -81 5 -60 148 22 138 22 137 -36 137
l-28 0 -21 -157z"/>
<path d="M3641 5381 c-11 -7 -11 -18 -2 -60 15 -70 15 -68 -21 -74 -18 -3 -47
-9 -64 -12 l-31 -7 -13 61 c-7 34 -15 61 -19 61 -3 0 -22 -5 -42 -10 l-36 -10
41 -160 41 -160 30 6 c45 9 48 16 31 79 -8 32 -13 62 -11 65 3 4 22 10 42 14
21 3 48 9 59 12 20 5 23 0 34 -61 l13 -67 35 5 c19 4 36 8 39 10 3 3 -33 209
-52 295 -4 16 -12 22 -33 22 -15 0 -33 -4 -41 -9z"/>
<path d="M5615 5378 c-2 -7 -16 -76 -30 -153 -15 -76 -27 -143 -28 -149 -2 -9
201 -62 208 -54 2 1 6 15 10 29 6 25 4 27 -47 39 -92 21 -87 17 -77 52 4 17
10 33 13 35 2 3 30 -1 61 -7 31 -6 58 -10 60 -8 2 2 6 15 10 29 6 24 3 26 -57
40 -58 13 -63 17 -60 39 6 39 15 42 82 25 34 -9 63 -15 65 -13 1 2 5 15 9 30
7 30 1 32 -119 58 -27 5 -60 12 -73 15 -13 3 -24 0 -27 -7z"/>
<path d="M3198 5272 l-48 -16 0 -174 c0 -155 2 -173 16 -168 9 3 27 9 40 12
21 5 24 12 24 50 0 37 4 46 23 53 63 24 65 24 89 -14 21 -33 26 -35 58 -30 19
4 38 10 43 14 7 7 -180 292 -192 290 -3 0 -27 -8 -53 -17z"/>
<path d="M5991 5130 c-52 -77 -93 -142 -90 -143 2 -2 19 -9 37 -15 31 -11 33
-9 55 23 24 39 27 39 79 25 35 -10 37 -13 40 -57 3 -43 5 -47 41 -59 l37 -13
0 175 c0 195 5 180 -75 198 -30 6 -32 4 -124 -134z"/>
<path d="M2880 5169 c-127 -38 -172 -171 -93 -277 48 -64 129 -80 210 -41 57
28 86 69 91 135 10 125 -94 216 -208 183z m83 -83 c30 -28 52 -94 43 -129 -13
-55 -69 -81 -112 -53 -64 42 -84 137 -39 181 31 32 74 32 108 1z"/>
<path d="M6292 5033 c-29 -82 -52 -151 -52 -155 0 -10 63 -29 70 -21 4 5 15
32 26 61 10 28 21 52 24 52 3 0 16 -7 29 -16 22 -16 23 -22 18 -80 l-6 -62 37
-15 37 -15 8 42 c4 22 6 61 4 84 -4 41 -3 44 24 54 34 12 63 60 55 92 -9 36
-60 76 -130 102 -37 13 -73 24 -80 24 -7 0 -34 -63 -64 -147z"/>
<path d="M2613 5055 c-18 -8 -33 -20 -33 -27 0 -7 20 -52 43 -100 24 -49 41
-88 40 -88 -1 0 -25 17 -52 38 -27 20 -74 52 -104 70 l-55 33 -41 -21 c-23
-11 -41 -23 -41 -25 0 -3 32 -70 72 -149 l72 -144 30 15 c17 9 32 17 34 18 2
2 -20 49 -48 105 -28 56 -45 98 -39 94 7 -4 57 -38 111 -75 l98 -68 35 15 c19
8 35 19 35 24 0 8 -116 286 -124 297 0 1 -16 -5 -33 -12z"/>
<path d="M6641 5047 c-5 -12 -34 -80 -65 -151 -31 -71 -56 -130 -54 -131 2 -1
18 -10 36 -19 l32 -17 21 48 c11 26 26 51 32 55 29 18 36 6 42 -71 7 -77 8
-79 42 -95 18 -9 37 -16 41 -16 8 0 0 102 -13 181 l-6 36 80 33 c45 19 81 37
81 40 0 4 -18 15 -41 25 l-40 19 -75 -37 c-41 -20 -77 -37 -79 -37 -3 0 6 22
20 50 14 27 25 55 25 63 0 7 -16 21 -35 30 -35 17 -36 16 -44 -6z"/>
<path d="M4673 3676 c-42 -21 -62 -37 -62 -50 -1 -30 56 -140 97 -186 l38 -43
36 42 c37 43 98 157 98 183 0 8 -23 25 -50 38 -28 13 -56 30 -62 37 -14 17
-22 15 -95 -21z"/>
<path d="M2740 3707 c-19 -6 -58 -34 -87 -63 -88 -87 -106 -209 -49 -321 42
-84 113 -132 205 -140 109 -10 199 38 253 134 62 111 45 238 -45 327 -33 33
-67 56 -93 64 -50 14 -136 14 -184 -1z m178 -43 c179 -74 184 -338 8 -420 -65
-30 -117 -30 -183 0 -144 67 -174 267 -56 378 59 56 156 74 231 42z"/>
<path d="M2782 3525 c-32 -14 -62 -63 -62 -101 0 -62 71 -122 130 -109 57 12
98 85 80 140 -22 67 -86 98 -148 70z"/>
<path d="M3323 3700 c-117 -28 -203 -140 -202 -265 1 -106 50 -191 140 -240
70 -39 170 -42 235 -8 49 26 110 92 132 142 24 56 21 165 -7 224 -54 112 -182
175 -298 147z m155 -59 c145 -75 169 -272 45 -380 -105 -93 -257 -67 -330 56
-23 40 -28 59 -28 118 0 58 5 78 27 116 24 41 78 88 118 102 37 13 132 6 168
-12z"/>
<path d="M3311 3494 c-32 -27 -48 -76 -37 -117 19 -77 121 -104 177 -48 24 24
29 38 29 76 0 40 -5 52 -34 81 -43 43 -90 46 -135 8z"/>
<path d="M3028 3214 c-19 -10 -28 -23 -28 -40 0 -33 17 -64 35 -64 10 0 15
-10 15 -30 0 -39 -21 -39 -82 -1 -45 28 -47 29 -63 11 -15 -17 -14 -20 32 -51
38 -27 60 -35 108 -38 123 -7 140 -5 204 29 58 31 61 34 47 54 -7 12 -15 20
-17 19 -87 -42 -142 -64 -154 -59 -9 3 -15 18 -15 35 0 23 4 28 18 24 13 -3
24 7 41 37 22 40 22 42 5 56 -46 36 -101 43 -146 18z"/>
<path d="M6085 3616 c-172 -80 -119 -346 69 -346 75 0 130 38 161 112 46 112
-30 237 -148 245 -31 2 -64 -2 -82 -11z m119 -40 c127 -53 101 -249 -36 -263
-150 -15 -204 191 -68 259 42 22 60 22 104 4z"/>
<path d="M6123 3500 c-44 -18 -57 -86 -23 -120 43 -43 120 -11 120 49 0 52
-51 89 -97 71z"/>
<path d="M6554 3581 c-64 -29 -89 -73 -89 -152 0 -56 4 -71 27 -101 34 -44
102 -73 151 -64 84 16 137 83 137 172 0 120 -118 196 -226 145z m111 -35 c140
-59 62 -281 -82 -233 -103 34 -109 189 -10 232 41 18 50 18 92 1z"/>
<path d="M4394 3969 c-30 -15 -54 -61 -54 -104 0 -52 53 -105 105 -105 52 0
105 53 105 105 0 89 -78 141 -156 104z"/>
<path d="M5010 3973 c-49 -18 -80 -83 -66 -139 19 -75 121 -101 177 -45 24 24
29 38 29 76 0 40 -5 52 -34 81 -33 33 -66 42 -106 27z"/>
</g>
</svg>
